<svg width="28" height="28" viewBox="0 0 28 28" fill="none" xmlns="http://www.w3.org/2000/svg">
<path d="M6 12V11.5219C6.01559 10.5172 6.23462 9.52547 6.64453 8.6034C7.05445 7.68133 7.6472 6.84708 8.38882 6.14844C9.13044 5.44981 10.0064 4.90052 10.9664 4.53207C11.9264 4.16361 12.9516 3.98322 13.9834 4.00123C15.0151 3.98322 16.0404 4.16361 17.0004 4.53207C17.9604 4.90052 18.8363 5.44981 19.5779 6.14844C20.3195 6.84708 20.9123 7.68133 21.3222 8.6034C21.7321 9.52547 21.9511 10.5172 21.9667 11.5219L22 12" stroke="#171A19" stroke-width="2.5" stroke-linecap="square"/>
<path d="M5.93548 11.0011H7.03226C7.28892 11.0011 8 11 8 11C8 11 8 11.644 8 11.876V17.1251C8 17.3572 8 18 8 18C8 18 7.28892 18 7.03226 18H5.93548C5.42216 18 4 18 4 18C4 18 4 16.7143 4 16.2503V12.7509C4 12.2868 4 11.0011 4 11.0011C4 11.0011 5.42216 11.0011 5.93548 11.0011Z" fill="white" stroke="#171A19" stroke-width="2.5" stroke-linecap="square"/>
<path d="M0.3125 9.74805H2.8125V13.248L0.3125 9.74805Z" fill="#171A19"/>
<path d="M22.0645 18H20.9677C20.7111 18 20 18 20 18C20 18 20 17.3571 20 17.125V11.875C20 11.6429 20 11 20 11C20 11 20.7111 11 20.9677 11H22.0645C22.5778 11 24 11 24 11C24 11 24 12.2859 24 12.75V16.25C24 16.7141 24 18 24 18C24 18 22.5778 18 22.0645 18Z" fill="white" stroke="#171A19" stroke-width="2.5" stroke-linecap="square"/>
<path d="M15 23.5H16.5C19.5376 23.5 22 21.0376 22 18V18" stroke="#171A19" stroke-width="2.5"/>
<path d="M15.3068 25.3033C14.838 25.7721 13.5391 27.0711 13.5391 27.0711C13.5391 27.0711 12.7272 26.2592 12.4342 25.9662L11.1084 24.6404C10.8154 24.3474 10.0035 23.5355 10.0035 23.5355L11.7713 21.7678L13.5391 20C13.5391 20 14.3509 20.8118 14.6439 21.1049L15.9697 22.4307C16.2628 22.7237 17.0746 23.5355 17.0746 23.5355C17.0746 23.5355 15.7757 24.8345 15.3068 25.3033Z" fill="#D9D9D9"/>
<path d="M15.3068 25.3033C14.838 25.7721 13.5391 27.0711 13.5391 27.0711C13.5391 27.0711 12.7272 26.2592 12.4342 25.9662L11.1084 24.6404C10.8154 24.3474 10.0035 23.5355 10.0035 23.5355L11.7713 21.7678L13.5391 20C13.5391 20 14.3509 20.8118 14.6439 21.1049L15.9697 22.4307C16.2628 22.7237 17.0746 23.5355 17.0746 23.5355C17.0746 23.5355 15.7757 24.8345 15.3068 25.3033Z" fill="#171A19"/>
</svg>
