<svg width="28" height="28" viewBox="0 0 28 28" fill="none" xmlns="http://www.w3.org/2000/svg">
<path d="M7.75 4H20.25L24 12.4183V21H4L4 12.4183L7.75 4Z" stroke="#171A19" stroke-width="2.5"/>
<path d="M4.45312 2.73828H6.95312V6.23828L4.45312 2.73828Z" fill="#171A19"/>
<path d="M4 20L4 25" stroke="#171A19" stroke-width="2.5"/>
<path d="M24 20L24 25" stroke="#171A19" stroke-width="2.5"/>
<path d="M11.9097 17H13.1397V14.4H14.8997C16.0897 14.4 17.4697 13.61 17.4697 11.89C17.4697 10.82 16.7097 9.73 15.2097 9.73H11.9097V17ZM13.1397 13.37V10.78H14.9897C15.7197 10.78 16.2097 11.12 16.2097 11.99C16.2097 13.04 15.5397 13.37 14.9597 13.37H13.1397Z" fill="#171A19"/>
<path d="M11.9097 17H11.5097V17.4H11.9097V17ZM13.1397 17V17.4H13.5397V17H13.1397ZM13.1397 14.4V14H12.7397V14.4H13.1397ZM11.9097 9.73V9.33H11.5097V9.73H11.9097ZM13.1397 13.37H12.7397V13.77H13.1397V13.37ZM13.1397 10.78V10.38H12.7397V10.78H13.1397ZM11.9097 17.4H13.1397V16.6H11.9097V17.4ZM13.5397 17V14.4H12.7397V17H13.5397ZM13.1397 14.8H14.8997V14H13.1397V14.8ZM14.8997 14.8C15.5767 14.8 16.3132 14.5767 16.8874 14.097C17.4718 13.6087 17.8697 12.8689 17.8697 11.89H17.0697C17.0697 12.6311 16.7775 13.1463 16.3745 13.483C15.9612 13.8283 15.4127 14 14.8997 14V14.8ZM17.8697 11.89C17.8697 11.2632 17.6475 10.6232 17.1952 10.1365C16.7373 9.64363 16.0636 9.33 15.2097 9.33V10.13C15.8557 10.13 16.3121 10.3614 16.6092 10.681C16.9119 11.0068 17.0697 11.4468 17.0697 11.89H17.8697ZM15.2097 9.33H11.9097V10.13H15.2097V9.33ZM11.5097 9.73V17H12.3097V9.73H11.5097ZM13.5397 13.37V10.78H12.7397V13.37H13.5397ZM13.1397 11.18H14.9897V10.38H13.1397V11.18ZM14.9897 11.18C15.2998 11.18 15.492 11.2529 15.6048 11.3551C15.7103 11.4507 15.8097 11.6297 15.8097 11.99H16.6097C16.6097 11.4803 16.4641 11.0543 16.1421 10.7624C15.8274 10.4771 15.4096 10.38 14.9897 10.38V11.18ZM15.8097 11.99C15.8097 12.4246 15.6747 12.6517 15.5362 12.775C15.3882 12.9068 15.18 12.97 14.9597 12.97V13.77C15.3194 13.77 15.7362 13.6682 16.0682 13.3725C16.4097 13.0683 16.6097 12.6054 16.6097 11.99H15.8097ZM14.9597 12.97H13.1397V13.77H14.9597V12.97Z" fill="#171A19"/>
</svg>
