<svg width="28" height="28" viewBox="0 0 28 28" fill="none" xmlns="http://www.w3.org/2000/svg">
<path d="M4 4H14H24V23.9985H14H4V4Z" stroke="#171A19" stroke-width="2.5"/>
<path d="M17.75 19.25L17.75 23.75L10.25 23.75L10.25 19.25L17.75 19.25Z" stroke="#171A19" stroke-width="2.49991"/>
<path fill-rule="evenodd" clip-rule="evenodd" d="M10 10.4998V8H7.5V10.4998L10 10.4998ZM10 14.4998V12L7.5 12V14.4998H10ZM15.5 8V10.4998L13 10.4998V8H15.5ZM15.5 14.4998V12L13 12V14.4998H15.5ZM20.5 8V10.4998L18 10.4998V8H20.5ZM20.5 14.4998V12L18 12V14.4998H20.5Z" fill="#171A19"/>
<path d="M0.328125 2.75H2.82812V6.25L0.328125 2.75Z" fill="#171A19"/>
</svg>
